<?xml version="1.0" standalone="no"?>
<!DOCTYPE svg PUBLIC "-//W3C//DTD SVG 20010904//EN"
 "http://www.w3.org/TR/2001/REC-SVG-20010904/DTD/svg10.dtd">
<svg version="1.0" xmlns="http://www.w3.org/2000/svg"
 width="300.000000pt" height="300.000000pt" viewBox="0 0 300.000000 300.000000"
 preserveAspectRatio="xMidYMid meet">
<metadata>
Created by potrace 1.10, written by Peter Selinger 2001-2011
</metadata>
<g transform="translate(0.000000,300.000000) scale(0.100000,-0.100000)"
fill="#000000" stroke="none">
<path d="M995 1835 l0 -245 243 0 242 0 0 245 0 245 -242 0 -243 0 0 -245z
m455 -5 l0 -210 -212 0 -213 0 3 210 3 210 209 0 210 0 0 -210z"/>
<path d="M1507 1943 c-1 -1 -1 -111 1 -245 l3 -243 239 0 240 0 0 245 0 245
-241 0 c-132 0 -241 -1 -242 -2z m453 -243 l0 -210 -210 0 -210 0 0 210 0 210
210 0 210 0 0 -210z"/>
<path d="M995 1325 l0 -245 243 0 242 0 0 245 0 245 -242 0 -243 0 0 -245z
m455 -5 l0 -210 -210 0 -210 0 0 210 0 210 210 0 210 0 0 -210z"/>
<path d="M1507 1189 l2 -240 241 -2 240 -2 0 243 0 242 -242 0 -243 0 2 -241z
m453 1 l0 -210 -210 0 -210 0 0 210 0 210 210 0 210 0 0 -210z"/>
</g>
</svg>
