<?xml version="1.0" standalone="no"?>
<!DOCTYPE svg PUBLIC "-//W3C//DTD SVG 20010904//EN"
 "http://www.w3.org/TR/2001/REC-SVG-20010904/DTD/svg10.dtd">
<svg version="1.0" xmlns="http://www.w3.org/2000/svg"
 width="300.000000pt" height="300.000000pt" viewBox="0 0 300.000000 300.000000"
 preserveAspectRatio="xMidYMid meet">
<metadata>
Created by potrace 1.10, written by Peter Selinger 2001-2011
</metadata>
<g transform="translate(0.000000,300.000000) scale(0.100000,-0.100000)"
fill="#000000" stroke="none">
<path d="M995 1835 l0 -245 243 0 242 0 0 245 0 245 -242 0 -243 0 0 -245z
m453 210 c10 -4 12 -49 10 -217 l-3 -213 -208 -1 c-137 0 -210 3 -215 10 -10
15 -2 420 8 426 10 6 389 1 408 -5z"/>
<path d="M1136 1935 c-8 -23 -9 -168 0 -189 18 -45 42 -57 107 -54 56 3 63 6
83 35 12 18 23 30 25 28 2 -2 2 37 -1 87 -4 70 -9 93 -22 101 -31 20 -48 -8
-48 -84 0 -48 -5 -72 -16 -83 -20 -20 -43 -20 -50 -1 -4 8 -10 12 -15 9 -5 -3
-9 28 -9 68 0 72 -10 98 -36 98 -6 0 -14 -7 -18 -15z m34 -83 c0 -88 10 -109
56 -118 25 -5 37 -1 53 15 18 18 21 33 21 101 0 64 3 80 15 80 12 0 15 -15 15
-76 0 -107 -23 -143 -92 -144 -25 0 -46 8 -64 23 -25 22 -28 31 -32 110 -4 76
-2 87 12 87 13 0 16 -13 16 -78z"/>
<path d="M1748 1943 l-238 -3 0 -240 0 -240 240 0 240 0 0 245 c0 135 -1 244
-2 243 -2 -2 -110 -4 -240 -5z m214 -32 c4 0 6 -97 5 -213 l-2 -213 -217 -3
-217 -2 0 211 c0 116 1 215 4 218 3 6 400 8 427 2z"/>
<path d="M998 1325 l-3 -245 243 0 242 0 0 245 0 245 -240 0 -239 0 -3 -245z
m457 140 c3 -44 5 -143 3 -219 l-3 -140 -215 0 -215 -1 -3 210 c-1 115 -1 214
2 220 2 6 79 10 214 10 l211 0 6 -80z"/>
<path d="M1507 1190 l2 -241 241 -2 240 -2 0 243 0 242 -242 0 -243 0 2 -240z
m459 -2 l1 -218 -218 0 -217 0 1 220 2 220 215 -3 215 -2 1 -217z"/>
<path d="M1626 1332 c-5 -8 -8 -87 -7 -174 1 -46 5 -59 20 -68 25 -13 51 11
51 47 l0 26 21 -27 c26 -33 52 -33 77 0 l19 27 6 -32 c4 -18 13 -38 21 -46 12
-12 16 -12 30 4 14 15 16 38 14 132 -3 110 -4 114 -26 117 -30 5 -49 -12 -74
-65 -11 -24 -24 -43 -28 -43 -4 0 -20 25 -35 55 -24 47 -32 55 -56 55 -15 0
-30 -3 -33 -8z m84 -87 c19 -41 37 -74 40 -75 3 0 22 34 43 75 54 109 67 102
67 -35 0 -81 -3 -110 -12 -110 -10 0 -12 24 -10 92 l2 93 -42 -82 c-23 -46
-45 -83 -48 -83 -3 0 -25 37 -48 83 l-42 82 4 -92 c4 -76 2 -93 -10 -93 -11 0
-14 22 -14 110 0 98 2 110 18 110 11 0 28 -24 52 -75z"/>
</g>
</svg>
