<?xml version="1.0" standalone="no"?>
<!DOCTYPE svg PUBLIC "-//W3C//DTD SVG 20010904//EN"
 "http://www.w3.org/TR/2001/REC-SVG-20010904/DTD/svg10.dtd">
<svg version="1.0" xmlns="http://www.w3.org/2000/svg"
 width="300.000000pt" height="300.000000pt" viewBox="0 0 300.000000 300.000000"
 preserveAspectRatio="xMidYMid meet">
<metadata>
Created by potrace 1.10, written by Peter Selinger 2001-2011
</metadata>
<g transform="translate(0.000000,300.000000) scale(0.100000,-0.100000)"
fill="#000000" stroke="none">
<path d="M995 2055 l0 -245 243 0 242 0 0 245 0 245 -242 0 -243 0 0 -245z
m452 217 c14 -2 19 -417 5 -426 -11 -7 -410 -11 -417 -4 -3 3 -8 102 -10 219
l-5 214 208 -1 c114 0 212 -2 219 -2z"/>
<path d="M1131 2152 c-12 -23 -17 -94 -7 -110 4 -7 2 -12 -3 -12 -7 0 -8 -6
-3 -17 5 -10 15 -31 23 -48 20 -40 54 -57 109 -51 36 3 50 11 72 37 26 30 28
40 28 115 0 62 -4 85 -16 95 -31 25 -49 -1 -52 -77 -2 -45 -8 -75 -19 -86 -18
-20 -38 -25 -27 -6 4 6 3 8 -4 5 -5 -4 -17 -4 -26 -1 -13 5 -16 22 -16 78 0
71 -10 96 -37 96 -7 0 -17 -8 -22 -18z m39 -80 c0 -91 16 -116 72 -114 47 1
58 23 58 114 0 63 3 78 15 78 12 0 15 -16 15 -81 0 -76 -2 -82 -29 -110 -50
-49 -121 -37 -147 26 -20 48 -19 165 1 165 12 0 15 -15 15 -78z"/>
<path d="M1510 1925 l0 -245 240 0 240 0 0 245 0 245 -240 0 -240 0 0 -245z
m459 1 c-1 -153 -4 -216 -12 -219 -7 -2 -104 -3 -217 -3 l-205 1 -2 218 -2
217 219 0 220 0 -1 -214z"/>
<path d="M998 1545 l3 -245 239 0 240 0 0 245 0 245 -242 0 -243 0 3 -245z
m458 200 c2 -11 3 -109 2 -218 l-3 -198 -215 0 -215 -1 -3 208 c-1 115 -1 213
2 219 2 6 80 10 215 10 204 0 212 -1 217 -20z"/>
<path d="M1508 1415 l-3 -245 243 0 242 0 0 245 0 245 -240 0 -239 0 -3 -245z
m462 -5 l0 -220 -219 0 -218 0 0 220 0 219 219 0 218 0 0 -219z"/>
<path d="M1632 1558 c-10 -13 -15 -76 -13 -185 1 -41 5 -55 20 -63 27 -14 51
12 51 53 l0 32 21 -32 c28 -44 65 -43 84 2 7 17 9 15 17 -17 9 -36 34 -53 57
-38 8 4 11 44 9 125 -3 98 -6 120 -20 129 -14 8 -23 5 -47 -18 -17 -16 -28
-32 -26 -36 6 -10 -24 -50 -38 -50 -7 0 -23 24 -37 53 -26 54 -56 71 -78 45z
m79 -93 c19 -41 36 -74 39 -74 3 0 21 33 40 74 24 51 41 75 53 75 15 0 17 -12
17 -111 0 -79 -3 -110 -11 -107 -8 3 -11 34 -11 93 l2 90 -40 -77 c-22 -43
-45 -78 -51 -78 -5 0 -26 34 -46 75 -19 41 -37 75 -40 75 -3 0 -3 -39 -1 -87
2 -62 0 -87 -9 -90 -10 -4 -13 22 -13 106 0 101 2 111 18 111 14 0 29 -21 53
-75z"/>
<path d="M264 981 c-9 -9 -4 -100 6 -106 6 -4 10 5 10 19 0 21 5 26 25 26 14
0 25 5 25 10 0 6 -11 10 -25 10 -16 0 -25 6 -25 15 0 10 10 15 30 15 17 0 30
4 30 9 0 9 -67 11 -76 2z"/>
<path d="M390 928 c0 -32 4 -58 10 -58 6 0 10 9 10 20 0 27 24 25 43 -2 8 -13
18 -20 22 -16 4 4 2 14 -4 22 -9 11 -9 19 0 34 17 28 -1 49 -46 54 l-35 4 0
-58z m68 21 c2 -11 -6 -18 -23 -21 -21 -4 -25 -2 -25 19 0 20 4 24 22 21 13
-2 24 -10 26 -19z"/>
<path d="M560 977 c-36 -18 -36 -75 1 -96 24 -13 29 -13 53 2 34 22 36 69 4
91 -27 19 -26 19 -58 3z m48 -19 c17 -17 15 -43 -4 -59 -31 -26 -70 25 -44 56
15 18 32 19 48 3z"/>
<path d="M700 930 c0 -33 4 -60 10 -60 6 0 10 19 10 42 l0 41 30 -41 c17 -23
32 -42 35 -42 3 0 5 27 5 61 0 39 -4 58 -10 54 -6 -4 -8 -22 -5 -43 l6 -37
-30 35 c-17 19 -31 38 -31 43 0 4 -4 7 -10 7 -6 0 -10 -27 -10 -60z"/>
<path d="M844 978 c-3 -5 4 -8 15 -8 18 0 21 -6 21 -50 0 -27 5 -50 10 -50 6
0 10 23 10 51 0 41 3 50 15 45 8 -3 15 0 15 7 0 14 -78 18 -86 5z"/>
<path d="M983 974 c-2 -7 -3 -31 -1 -54 3 -41 4 -43 41 -45 21 -1 40 2 43 7 3
4 -11 8 -30 8 -25 0 -36 4 -36 15 0 10 10 15 30 15 17 0 30 5 30 10 0 6 -13
10 -30 10 -21 0 -30 5 -30 16 0 12 7 15 30 12 20 -3 30 0 30 8 0 16 -71 14
-77 -2z"/>
<path d="M1120 930 c0 -33 4 -60 10 -60 6 0 10 19 10 42 l0 42 31 -42 c17 -23
35 -42 40 -42 5 0 9 27 9 60 0 68 -17 82 -22 18 l-3 -42 -29 42 c-16 23 -33
42 -37 42 -5 0 -9 -27 -9 -60z"/>
<path d="M1280 929 l0 -58 37 5 c47 6 63 20 63 54 0 35 -18 50 -64 54 l-36 2
0 -57z m74 19 c14 -23 -3 -52 -33 -56 -19 -3 -21 1 -21 38 0 37 2 41 21 38 12
-2 27 -11 33 -20z"/>
<path d="M1517 981 c-1 -3 -2 -28 -2 -56 l0 -50 35 2 c22 1 41 10 52 24 22 26
22 32 1 58 -17 20 -80 36 -86 22z m67 -27 c9 -8 16 -19 16 -24 0 -16 -31 -40
-51 -40 -16 0 -19 7 -19 40 0 33 3 40 19 40 11 0 27 -7 35 -16z"/>
<path d="M1670 930 l0 -55 40 -1 c22 -1 40 2 40 7 0 5 -13 9 -30 9 -20 0 -30
5 -30 15 0 9 9 15 25 15 14 0 25 5 25 10 0 6 -11 10 -25 10 -16 0 -25 6 -25
15 0 10 10 15 30 15 17 0 30 4 30 9 0 5 -18 8 -40 8 l-40 -2 0 -55z"/>
<path d="M1803 968 c11 -41 37 -98 45 -98 8 0 52 96 52 113 0 22 -20 2 -30
-30 -18 -56 -25 -58 -39 -14 -13 45 -38 71 -28 29z"/>
<path d="M1953 974 c-2 -7 -3 -31 -1 -54 3 -41 4 -43 40 -46 21 -2 40 1 43 7
4 5 -9 9 -29 9 -25 0 -36 4 -36 15 0 10 10 15 30 15 17 0 30 5 30 10 0 6 -13
10 -30 10 -20 0 -30 5 -30 15 0 10 10 15 30 15 17 0 30 4 30 9 0 14 -72 8 -77
-5z"/>
<path d="M2090 933 l0 -58 35 -2 c19 -1 35 3 35 8 0 5 -11 9 -25 9 -23 0 -25
3 -25 50 0 28 -4 50 -10 50 -6 0 -10 -26 -10 -57z"/>
<path d="M2226 969 c-33 -26 -31 -55 7 -82 l27 -21 28 21 c37 27 39 56 6 82
-15 11 -30 21 -34 21 -4 0 -19 -10 -34 -21z m55 -9 c43 -24 9 -82 -36 -62 -29
13 -33 46 -7 61 21 13 20 13 43 1z"/>
<path d="M2370 928 c0 -32 4 -58 10 -58 6 0 10 9 10 20 0 14 7 20 24 20 13 0
29 7 36 15 13 16 5 55 -13 56 -7 0 -24 2 -39 3 -28 2 -28 1 -28 -56z m67 27
c7 -19 5 -20 -24 -29 -20 -6 -23 -4 -23 18 0 19 5 26 20 26 11 0 23 -7 27 -15z"/>
<path d="M2513 974 c-2 -7 -3 -31 -1 -54 3 -41 4 -43 41 -46 25 -2 37 1 37 10
0 8 -10 11 -30 8 -23 -3 -30 0 -30 12 0 11 9 16 30 16 17 0 30 5 30 10 0 6
-13 10 -30 10 -20 0 -30 5 -30 15 0 10 10 15 30 15 17 0 30 4 30 9 0 14 -72 8
-77 -5z"/>
<path d="M2650 928 c0 -32 4 -58 10 -58 6 0 10 9 10 20 0 27 24 25 43 -2 8
-13 18 -20 22 -16 4 4 2 14 -5 23 -10 12 -10 18 0 30 13 16 5 55 -13 56 -7 0
-24 2 -39 3 -28 2 -28 1 -28 -56z m68 21 c2 -11 -6 -18 -23 -21 -21 -4 -25 -2
-25 19 0 20 4 24 22 21 13 -2 24 -10 26 -19z"/>
</g>
</svg>
